<svg width="22" height="18" viewBox="0 0 22 18" fill="none" xmlns="http://www.w3.org/2000/svg">
<path d="M9 3C9 1.89543 9.89543 1 11 1C12.1046 1 13 1.89543 13 3V15C13 16.1046 12.1046 17 11 17C9.89543 17 9 16.1046 9 15V3Z" stroke="#437EF7" stroke-width="1.67"/>
<path d="M17 11C17 9.89543 17.8954 9 19 9C20.1046 9 21 9.89543 21 11V15C21 16.1046 20.1046 17 19 17C17.8954 17 17 16.1046 17 15V11Z" stroke="#437EF7" stroke-width="1.67"/>
<path d="M1 7C1 5.89543 1.89543 5 3 5C4.10457 5 5 5.89543 5 7V15C5 16.1046 4.10457 17 3 17C1.89543 17 1 16.1046 1 15V7Z" stroke="#437EF7" stroke-width="1.67"/>
</svg>
